<?xml version="1.0" encoding="UTF-8"?>
<svg id="_レイヤー_1" data-name="レイヤー 1" xmlns="http://www.w3.org/2000/svg" viewBox="0 0 428.95 371.48">
  <defs>
    <style>
      .cls-1 {
        stroke: #231815;
        stroke-width: .1px;
      }

      .cls-1, .cls-2 {
        stroke-miterlimit: 10;
      }

      .cls-2 {
        stroke: #000;
        stroke-width: 12px;
      }
    </style>
  </defs>
  <g>
    <path class="cls-1" d="M134.15,150.27c-.38-.95-.95-1.83-1.9-2.66-1.33-1.08-2.72-1.52-4.55-1.52-3.92,0-5.95,2.34-5.95,5.06,0,1.27.44,3.48,4.55,5.12l4.24,1.71c7.78,3.16,9.93,7.59,9.93,12.4,0,8.03-5.69,13.54-13.6,13.54-4.87,0-7.78-1.83-9.93-4.24-2.28-2.53-3.29-5.31-3.54-8.22l6.39-1.39c0,2.09.76,4.05,1.77,5.38,1.2,1.52,2.97,2.53,5.5,2.53,3.92,0,6.96-2.85,6.96-7.09s-3.29-6.07-6.07-7.21l-4.05-1.71c-3.48-1.46-8.6-4.37-8.6-10.69,0-5.69,4.43-11.13,12.34-11.13,4.56,0,7.15,1.71,8.48,2.85,1.14,1.01,2.34,2.47,3.23,4.24l-5.19,3.04Z"/>
    <path class="cls-1" d="M159.96,156.47v15.25c0,1.58.06,3.42,1.14,4.81.82,1.08,2.28,1.83,4.05,1.83s3.23-.76,4.05-1.83c1.08-1.39,1.14-3.23,1.14-4.81v-15.25h6.2v15.44c0,3.42-.38,6.26-2.85,8.73s-5.69,3.29-8.67,3.29c-2.72,0-6.01-.82-8.41-3.29-2.47-2.47-2.85-5.31-2.85-8.73v-15.44h6.2Z"/>
    <path class="cls-1" d="M196.91,197.59h-6.2v-41.12h6.2v2.91c2.28-2.72,5.25-3.61,7.91-3.61,7.02,0,12.97,5.38,12.97,13.85,0,8.98-6.58,14.3-12.91,14.3-1.46,0-5.19-.51-7.97-3.92v17.59ZM196.53,169.95c0,5.57,3.61,8.41,7.53,8.41,4.49,0,7.4-3.86,7.4-8.48s-2.91-8.54-7.4-8.54c-3.92,0-7.53,2.78-7.53,8.6Z"/>
    <path class="cls-1" d="M254.41,177.03c-1.14,2.02-2.78,3.8-4.49,4.87-2.15,1.39-5,2.02-7.84,2.02-3.54,0-6.45-.89-8.98-3.42-2.53-2.53-3.92-6.2-3.92-10.19s1.46-8.1,4.24-10.94c2.21-2.21,5.12-3.61,8.92-3.61,4.24,0,6.96,1.83,8.54,3.48,3.42,3.54,3.73,8.48,3.73,11.26v.76h-19.11c.13,1.9.95,4.05,2.28,5.38,1.46,1.46,3.23,1.71,4.74,1.71,1.71,0,2.97-.38,4.24-1.33,1.08-.82,1.9-1.9,2.47-2.91l5.19,2.91ZM248.27,166.22c-.25-1.46-.95-2.72-1.9-3.61-.82-.76-2.15-1.52-4.18-1.52-2.15,0-3.54.89-4.36,1.71-.89.82-1.58,2.09-1.9,3.42h12.34Z"/>
    <path class="cls-1" d="M267.38,156.47h6.2v2.4c.7-.82,1.71-1.71,2.59-2.21,1.2-.7,2.4-.89,3.8-.89,1.52,0,3.16.25,4.87,1.27l-2.53,5.63c-1.39-.89-2.53-.95-3.16-.95-1.33,0-2.66.19-3.86,1.46-1.71,1.83-1.71,4.37-1.71,6.14v13.79h-6.2v-26.63Z"/>
    <path class="cls-1" d="M300.91,159.57c2.53-3.29,5.95-3.8,7.91-3.8,7.02,0,12.97,5.31,12.97,13.98,0,7.34-4.68,14.17-12.91,14.17-1.9,0-5.25-.44-7.97-3.61v2.78h-6.2v-46.12h6.2v22.58ZM300.53,169.95c0,5.57,3.61,8.41,7.53,8.41,4.49,0,7.4-3.86,7.4-8.48s-2.91-8.54-7.4-8.54c-3.92,0-7.53,2.78-7.53,8.6Z"/>
  </g>
  <g>
    <path d="M145.46,229.23c1.5,0,4.43,0,6.63,1.71,1.59,1.22,2.52,3.33,2.52,5.61,0,3.5-2.32,4.92-3.05,5.33,1.79.29,2.85,1.06,3.54,1.71,1.63,1.54,1.95,3.66,1.95,5.08,0,1.59-.45,3.82-2.32,5.49-2.03,1.79-4.51,2.2-6.87,2.2h-9.11v-27.12h6.71ZM144.04,240.49h1.5c.81,0,4.11-.08,4.11-3.54,0-2.48-1.91-3.42-4.07-3.42h-1.55v6.95ZM144.04,252.04h2.28c.98,0,2.44-.04,3.62-.73,1.3-.77,1.67-2.07,1.67-3.13,0-.85-.28-2.32-1.99-3.09-1.14-.53-2.48-.53-3.62-.53h-1.95v7.48Z"/>
    <path d="M181.01,251.43c-.53,1.3-2.52,5.49-8.66,5.49-2.85,0-5-.81-6.75-2.48-1.95-1.83-2.77-4.11-2.77-6.87,0-3.5,1.42-5.65,2.68-6.91,2.07-2.03,4.51-2.48,6.63-2.48,3.58,0,5.65,1.42,6.87,2.89,1.87,2.24,2.11,5,2.11,6.91v.41h-13.18c0,1.06.28,2.2.85,2.97.53.73,1.63,1.67,3.54,1.67s3.29-.89,4.11-2.32l4.55.73ZM176.45,245.21c-.41-2.4-2.36-3.54-4.19-3.54s-3.74,1.18-4.15,3.54h8.34Z"/>
    <path d="M197.07,242.93c-1.18-1.1-2.36-1.18-2.89-1.18-1.18,0-1.91.57-1.91,1.42,0,.45.2,1.14,1.59,1.59l1.18.37c1.38.45,3.46,1.14,4.47,2.52.53.73.89,1.79.89,2.93,0,1.59-.53,3.17-1.95,4.47-1.42,1.3-3.13,1.87-5.29,1.87-3.66,0-5.73-1.75-6.83-2.93l2.6-3.01c.98,1.14,2.44,2.03,3.9,2.03,1.38,0,2.44-.69,2.44-1.91,0-1.1-.89-1.54-1.54-1.79l-1.14-.41c-1.26-.45-2.72-1.02-3.78-2.11-.81-.85-1.34-1.95-1.34-3.38,0-1.71.81-3.13,1.83-3.99,1.38-1.1,3.17-1.26,4.6-1.26,1.3,0,3.38.16,5.61,1.87l-2.44,2.89Z"/>
    <path d="M211.39,265.66h-4.96v-26.92h4.96v2.28c.77-1.1,2.48-2.85,5.73-2.85,1.55,0,4.03.37,6.02,2.36,1.3,1.3,2.64,3.5,2.64,6.99,0,3.99-1.75,6.14-2.77,7.12-1.34,1.26-3.38,2.28-5.98,2.28-1.22,0-3.7-.2-5.65-2.85v11.59ZM212.56,243.74c-1.1.93-1.67,2.16-1.67,3.78s.65,2.97,1.63,3.82c.65.57,1.71,1.18,3.25,1.18,1.63,0,2.68-.65,3.33-1.26,1.06-.98,1.54-2.44,1.54-3.74s-.53-2.76-1.5-3.7c-.89-.81-2.2-1.26-3.38-1.26-1.3,0-2.32.37-3.21,1.18Z"/>
    <path d="M248.43,240.65c1.75,1.59,2.97,4.03,2.97,6.91s-1.22,5.29-2.97,6.87c-1.5,1.38-3.78,2.48-7.12,2.48s-5.61-1.1-7.12-2.48c-1.75-1.59-2.97-4.03-2.97-6.87s1.22-5.33,2.97-6.91c1.5-1.38,3.78-2.48,7.12-2.48s5.61,1.1,7.12,2.48ZM246.28,247.57c0-2.77-2.11-5-4.96-5s-4.96,2.24-4.96,5,2.07,4.96,4.96,4.96,4.96-2.28,4.96-4.96Z"/>
    <path d="M262.71,226.7v18.46l6.59-6.42h6.43l-8.25,7.73,8.91,9.88h-6.59l-6.55-7.52-.53.49v7.04h-4.96v-29.64h4.96Z"/>
    <path d="M298.37,251.43c-.53,1.3-2.52,5.49-8.66,5.49-2.85,0-5-.81-6.75-2.48-1.95-1.83-2.77-4.11-2.77-6.87,0-3.5,1.42-5.65,2.68-6.91,2.07-2.03,4.51-2.48,6.63-2.48,3.58,0,5.65,1.42,6.87,2.89,1.87,2.24,2.11,5,2.11,6.91v.41h-13.17c0,1.06.28,2.2.85,2.97.53.73,1.63,1.67,3.54,1.67s3.29-.89,4.11-2.32l4.55.73ZM293.82,245.21c-.41-2.4-2.36-3.54-4.19-3.54s-3.74,1.18-4.15,3.54h8.34Z"/>
  </g>
  <path class="cls-2" d="M318.25,365.48H110.7l-.65-1.13L6.93,185.74,110.7,6h207.55l.65,1.13,103.12,178.61-103.77,179.74ZM113.31,360.96h202.33l101.17-175.22L315.64,10.52H113.31L12.14,185.74l101.17,175.22Z"/>
</svg>